<svg xmlns="http://www.w3.org/2000/svg" xmlns:xlink="http://www.w3.org/1999/xlink" viewBox="0 0 512 512" width="512" height="512" style="width: 100%; height: 100%; transform: translate3d(0,0,0); content-visibility: visible;" preserveAspectRatio="xMidYMid meet"><defs><clipPath id="__lottie_element_2"><rect width="512" height="512" x="0" y="0"></rect></clipPath><linearGradient id="__lottie_element_6" spreadMethod="pad" gradientUnits="userSpaceOnUse" x1="-8" y1="-160" x2="-10.020999908447266" y2="-200.42100524902344"><stop offset="5%" stop-color="rgb(215,180,145)"></stop><stop offset="53%" stop-color="rgb(170,136,102)"></stop><stop offset="100%" stop-color="rgb(124,92,59)"></stop></linearGradient><linearGradient id="__lottie_element_7" spreadMethod="pad" gradientUnits="userSpaceOnUse" x1="-2" y1="-262" x2="-0.5350000262260437" y2="-165.31900024414062"><stop offset="50%" stop-color="rgb(197,147,89)"></stop><stop offset="60%" stop-color="rgb(209,167,120)"></stop><stop offset="69%" stop-color="rgb(220,186,151)"></stop><stop offset="85%" stop-color="rgb(210,171,126)"></stop><stop offset="100%" stop-color="rgb(201,155,102)"></stop></linearGradient><linearGradient id="__lottie_element_8" spreadMethod="pad" gradientUnits="userSpaceOnUse" x1="-3" y1="-109" x2="-4.173999786376953" y2="-211.68899536132812"><stop offset="45%" stop-color="rgb(114,83,55)" stop-opacity="1"></stop><stop offset="60%" stop-color="rgb(114,83,55)" stop-opacity="0.5"></stop><stop offset="74%" stop-color="rgb(114,83,55)" stop-opacity="0"></stop></linearGradient><linearGradient id="__lottie_element_12" spreadMethod="pad" gradientUnits="userSpaceOnUse" x1="77" y1="196" x2="74.72599792480469" y2="158.48399353027344"><stop offset="5%" stop-color="rgb(215,180,145)"></stop><stop offset="53%" stop-color="rgb(170,136,102)"></stop><stop offset="100%" stop-color="rgb(124,92,59)"></stop></linearGradient><linearGradient id="__lottie_element_13" spreadMethod="pad" gradientUnits="userSpaceOnUse" x1="188" y1="169" x2="203.90899658203125" y2="169"><stop offset="0%" stop-color="rgb(0,0,0)" stop-opacity="0.6190000176429749"></stop><stop offset="50%" stop-color="rgb(0,0,0)" stop-opacity="0.3089999854564667"></stop><stop offset="100%" stop-color="rgb(0,0,0)" stop-opacity="0"></stop></linearGradient><linearGradient id="__lottie_element_14" spreadMethod="pad" gradientUnits="userSpaceOnUse" x1="2" y1="139" x2="4.24399995803833" y2="215.28799438476562"><stop offset="23%" stop-color="rgb(197,147,89)"></stop><stop offset="34%" stop-color="rgb(209,167,120)"></stop><stop offset="45%" stop-color="rgb(220,186,151)"></stop><stop offset="57%" stop-color="rgb(210,171,126)"></stop><stop offset="69%" stop-color="rgb(201,155,102)"></stop></linearGradient><linearGradient id="__lottie_element_15" spreadMethod="pad" gradientUnits="userSpaceOnUse" x1="-4" y1="243" x2="-4" y2="160.15899658203125"><stop offset="45%" stop-color="rgb(114,83,55)" stop-opacity="1"></stop><stop offset="60%" stop-color="rgb(114,83,55)" stop-opacity="0.5"></stop><stop offset="74%" stop-color="rgb(114,83,55)" stop-opacity="0"></stop></linearGradient><linearGradient id="__lottie_element_19" spreadMethod="pad" gradientUnits="userSpaceOnUse" x1="-2" y1="-182" x2="4.857999801635742" y2="-105.44599914550781"><stop offset="28%" stop-color="rgb(0,0,0)" stop-opacity="0.6190000176429749"></stop><stop offset="56%" stop-color="rgb(0,0,0)" stop-opacity="0.3089999854564667"></stop><stop offset="85%" stop-color="rgb(0,0,0)" stop-opacity="0"></stop></linearGradient><linearGradient id="__lottie_element_23" spreadMethod="pad" gradientUnits="userSpaceOnUse" x1="0" y1="192" x2="-3.756999969482422" y2="143.6929931640625"><stop offset="29%" stop-color="rgb(0,0,0)" stop-opacity="0.6190000176429749"></stop><stop offset="56%" stop-color="rgb(0,0,0)" stop-opacity="0.3089999854564667"></stop><stop offset="83%" stop-color="rgb(0,0,0)" stop-opacity="0"></stop></linearGradient><linearGradient id="__lottie_element_30" spreadMethod="pad" gradientUnits="userSpaceOnUse" x1="4" y1="-187" x2="-1.0460000038146973" y2="180.10699462890625"><stop offset="0%" stop-color="rgb(158,127,91)"></stop><stop offset="43%" stop-color="rgb(182,149,115)"></stop><stop offset="100%" stop-color="rgb(206,172,139)"></stop></linearGradient><linearGradient id="__lottie_element_31" spreadMethod="pad" gradientUnits="userSpaceOnUse" x1="-187" y1="119" x2="-90.9739990234375" y2="41.68000030517578"><stop offset="2%" stop-color="rgb(214,178,144)" stop-opacity="1"></stop><stop offset="51%" stop-color="rgb(214,178,144)" stop-opacity="0.5"></stop><stop offset="100%" stop-color="rgb(214,178,144)" stop-opacity="0"></stop></linearGradient><radialGradient id="__lottie_element_32" spreadMethod="pad" gradientUnits="userSpaceOnUse" cx="-91.51799774169922" cy="5.796999931335449" r="91.70141285091286" fx="-91.51799774169922" fy="5.796999931335449"><stop offset="1%" stop-color="rgb(212,176,140)" stop-opacity="0.8999999761581421"></stop><stop offset="50%" stop-color="rgb(212,176,140)" stop-opacity="0.44999998807907104"></stop><stop offset="100%" stop-color="rgb(212,176,140)" stop-opacity="0"></stop></radialGradient><radialGradient id="__lottie_element_33" spreadMethod="pad" gradientUnits="userSpaceOnUse" cx="39.055999755859375" cy="80.8550033569336" r="89.79366728661566" fx="39.055999755859375" fy="80.8550033569336"><stop offset="1%" stop-color="rgb(212,176,140)" stop-opacity="1"></stop><stop offset="50%" stop-color="rgb(212,176,140)" stop-opacity="0.5"></stop><stop offset="100%" stop-color="rgb(212,176,140)" stop-opacity="0"></stop></radialGradient></defs><g clip-path="url(#__lottie_element_2)"><g style="display: block;" transform="matrix(1,0,0,1,256,256)" opacity="1"><g opacity="1" transform="matrix(1,0,0,1,0,0)"><path fill="url(#__lottie_element_30)" fill-opacity="1" d=" M186.76800537109375,207.23199462890625 C186.76800537109375,207.23199462890625 175.39999389648438,79.14700317382812 174.64199829101562,-14.074000358581543 C173.88400268554688,-107.29499816894531 183.73699951171875,-173.98899841308594 192.07400512695312,-198.24200439453125 C192.07400512695312,-198.24200439453125 -183.6529998779297,-195.39999389648438 -183.6529998779297,-195.39999389648438 C-183.6529998779297,-195.39999389648438 -177.02099609375,-177.02099609375 -173.98899841308594,-29.98900032043457 C-170.95700073242188,117.04299926757812 -187.6320037841797,192.83200073242188 -187.6320037841797,192.83200073242188 C-187.6320037841797,192.83200073242188 186.76800537109375,207.23199462890625 186.76800537109375,207.23199462890625z"></path><path stroke-linecap="round" stroke-linejoin="round" fill-opacity="0" stroke="rgb(160,127,87)" stroke-opacity="1" stroke-width="8" d=" M186.76800537109375,207.23199462890625 C186.76800537109375,207.23199462890625 175.39999389648438,79.14700317382812 174.64199829101562,-14.074000358581543 C173.88400268554688,-107.29499816894531 183.73699951171875,-173.98899841308594 192.07400512695312,-198.24200439453125 C192.07400512695312,-198.24200439453125 -183.6529998779297,-195.39999389648438 -183.6529998779297,-195.39999389648438 C-183.6529998779297,-195.39999389648438 -177.02099609375,-177.02099609375 -173.98899841308594,-29.98900032043457 C-170.95700073242188,117.04299926757812 -187.6320037841797,192.83200073242188 -187.6320037841797,192.83200073242188 C-187.6320037841797,192.83200073242188 186.76800537109375,207.23199462890625 186.76800537109375,207.23199462890625z"></path></g><g opacity="1" transform="matrix(1,0,0,1,0,0)"><path fill="url(#__lottie_element_31)" fill-opacity="1" d=" M-171.46299743652344,-98.70500183105469 C-171.46299743652344,-98.70500183105469 -161.35800170898438,80.66300201416016 -182.57899475097656,187.2740020751953 C-182.57899475097656,187.2740020751953 -20.28499984741211,210.30499267578125 -1.1890000104904175,181.8419952392578 C59.06399917602539,92.03099822998047 -173.73699951171875,-163.5050048828125 -171.46299743652344,-98.70500183105469z"></path></g><g opacity="1" transform="matrix(1,0,0,1,0,0)"><path fill="url(#__lottie_element_32)" fill-opacity="1" d=" M30.642000198364258,-25.863000869750977 C30.642000198364258,29.702999114990234 -15.180000305175781,74.74700164794922 -71.70500183105469,74.74700164794922 C-128.22999572753906,74.74700164794922 -174.05299377441406,29.702999114990234 -174.05299377441406,-25.863000869750977 C-174.05299377441406,-81.42900085449219 -128.22999572753906,-126.4739990234375 -71.70500183105469,-126.4739990234375 C-15.180000305175781,-126.4739990234375 30.642000198364258,-81.42900085449219 30.642000198364258,-25.863000869750977z"></path></g><g opacity="1" transform="matrix(1,0,0,1,0,0)"><path fill="url(#__lottie_element_33)" fill-opacity="1" d=" M176.1580047607422,76.8740005493164 C176.1580047607422,132.44000244140625 130.00999450683594,177.48399353027344 73.08399963378906,177.48399353027344 C16.158000946044922,177.48399353027344 -29.98900032043457,132.44000244140625 -29.98900032043457,76.8740005493164 C-29.98900032043457,21.308000564575195 16.158000946044922,-23.73699951171875 73.08399963378906,-23.73699951171875 C130.00999450683594,-23.73699951171875 176.1580047607422,21.308000564575195 176.1580047607422,76.8740005493164z"></path></g></g><g style="display: block;" transform="matrix(1,0,0,1,256,256)" opacity="0.75"><g opacity="1" transform="matrix(1,0,0,1,0,0)"><path stroke-linecap="round" stroke-linejoin="round" fill-opacity="0" stroke="rgb(135,103,56)" stroke-opacity="1" stroke-width="6" d=" M-159.5679931640625,-130.4040069580078 C-159.5679931640625,-130.4040069580078 -163.88600158691406,-118.86399841308594 -159.92799377441406,-117.68599700927734 C-155.97000122070312,-116.50800323486328 -149.13299560546875,-126.63600158691406 -149.13299560546875,-126.63600158691406 C-149.13299560546875,-126.63600158691406 -152.01199340820312,-119.0989990234375 -149.85299682617188,-118.62799835205078 C-147.69400024414062,-118.15699768066406 -143.01600646972656,-122.39600372314453 -140.13699340820312,-123.10299682617188 C-137.25799560546875,-123.80999755859375 -143.01600646972656,-117.68599700927734 -138.697998046875,-118.62799835205078 C-134.3800048828125,-119.56999969482422 -124.66500091552734,-123.33799743652344 -126.10399627685547,-120.51200103759766 C-127.54299926757812,-117.68599700927734 -127.54299926757812,-117.68599700927734 -127.54299926757812,-117.68599700927734"></path></g><g opacity="1" transform="matrix(1,0,0,1,0,0)"><path stroke-linecap="round" stroke-linejoin="round" fill-opacity="0" stroke="rgb(135,103,56)" stroke-opacity="1" stroke-width="6" d=" M-109.91200256347656,-131.11099243164062 C-109.91200256347656,-131.11099243164062 -114.58899688720703,-120.74700164794922 -111.35099792480469,-117.9209976196289 C-108.11299896240234,-115.09500122070312 -102.3550033569336,-124.51599884033203 -102.3550033569336,-124.51599884033203 C-102.3550033569336,-124.51599884033203 -103.79499816894531,-118.86299896240234 -101.99600219726562,-117.9209976196289 C-100.1969985961914,-116.97899627685547 -94.43900299072266,-124.04499816894531 -94.43900299072266,-124.04499816894531 C-94.43900299072266,-124.04499816894531 -95.15899658203125,-120.51200103759766 -93,-118.39199829101562 C-90.84100341796875,-116.27200317382812 -88.3219985961914,-121.92500305175781 -84.00399780273438,-122.63200378417969 C-79.68599700927734,-123.33899688720703 -81.84500122070312,-117.9209976196289 -81.84500122070312,-117.9209976196289 C-81.84500122070312,-117.9209976196289 -78.24700164794922,-118.15599822998047 -73.56900024414062,-120.74700164794922"></path></g><g opacity="1" transform="matrix(1,0,0,1,0,0)"><path stroke-linecap="round" stroke-linejoin="round" fill-opacity="0" stroke="rgb(135,103,56)" stroke-opacity="1" stroke-width="6" d=" M-60.255001068115234,-128.99099731445312 C-60.255001068115234,-128.99099731445312 -63.13399887084961,-119.0989990234375 -61.334999084472656,-118.15699768066406 C-59.5359992980957,-117.21499633789062 -54.858001708984375,-122.16100311279297 -51.979000091552734,-129.46200561523438 C-51.979000091552734,-129.46200561523438 -54.858001708984375,-124.98699951171875 -52.69900131225586,-118.86299896240234 C-50.540000915527344,-112.73899841308594 -41.90399932861328,-125.45800018310547 -41.90399932861328,-125.45800018310547 C-41.90399932861328,-125.45800018310547 -44.78300094604492,-119.0989990234375 -41.185001373291016,-118.86299896240234 C-37.58700180053711,-118.62699890136719 -31.82900047302246,-123.80899810791016 -31.82900047302246,-123.80899810791016 C-31.82900047302246,-123.80899810791016 -34.347999572753906,-119.80599975585938 -32.909000396728516,-118.62799835205078 C-31.469999313354492,-117.44999694824219 -20.673999786376953,-126.87100219726562 -20.673999786376953,-126.87100219726562 C-20.673999786376953,-126.87100219726562 -23.19300079345703,-123.5739974975586 -22.472999572753906,-119.0989990234375 C-21.753000259399414,-114.6240005493164 -18.155000686645508,-121.4540023803711 -12.39799976348877,-122.86699676513672 C-6.640999794006348,-124.27999877929688 -4.8420000076293945,-119.56999969482422 -4.8420000076293945,-119.56999969482422"></path></g><g opacity="1" transform="matrix(1,0,0,1,0,0)"><path stroke-linecap="round" stroke-linejoin="round" fill-opacity="0" stroke="rgb(135,103,56)" stroke-opacity="1" stroke-width="6" d=" M13.508999824523926,-132.05299377441406 C13.508999824523926,-132.05299377441406 9.91100025177002,-120.04100036621094 9.550999641418457,-118.86299896240234 C9.190999984741211,-117.68499755859375 14.58899974822998,-124.98699951171875 18.187000274658203,-124.98699951171875 C21.78499984741211,-124.98699951171875 18.187000274658203,-122.16100311279297 19.625999450683594,-118.62799835205078 C21.065000534057617,-115.09500122070312 24.663999557495117,-122.39600372314453 29.70199966430664,-123.5739974975586 C34.7400016784668,-124.75199890136719 28.98200035095215,-120.2760009765625 31.141000747680664,-117.9209976196289 C33.29999923706055,-115.56600189208984 39.7760009765625,-123.80999755859375 42.654998779296875,-123.10299682617188 C45.534000396728516,-122.39600372314453 43.375,-118.86299896240234 43.375,-118.86299896240234 C43.375,-118.86299896240234 47.69300079345703,-117.21399688720703 53.09000015258789,-121.21800231933594"></path></g><g opacity="1" transform="matrix(1,0,0,1,0,0)"><path stroke-linecap="round" stroke-linejoin="round" fill-opacity="0" stroke="rgb(135,103,56)" stroke-opacity="1" stroke-width="6" d=" M66.64399719238281,-130.01100158691406 C66.64399719238281,-130.01100158691406 65.92400360107422,-123.7300033569336 65.68399810791016,-119.64800262451172 C65.44400024414062,-115.56600189208984 70.24199676513672,-123.41699981689453 70.24199676513672,-123.41699981689453 C70.24199676513672,-123.41699981689453 69.52300262451172,-116.8219985961914 75.04000091552734,-119.33399963378906 C80.55699920654297,-121.84600067138672 83.91500091552734,-125.45800018310547 84.63500213623047,-121.84700012207031 C85.3550033569336,-118.23600006103516 87.75399780273438,-116.66500091552734 95.19000244140625,-119.64800262451172"></path></g><g opacity="1" transform="matrix(1,0,0,1,0,0)"><path stroke-linecap="round" stroke-linejoin="round" fill-opacity="0" stroke="rgb(135,103,56)" stroke-opacity="1" stroke-width="6" d=" M-161.2469940185547,-92.8949966430664 C-161.2469940185547,-92.8949966430664 -164.36599731445312,-86.52899932861328 -161.9669952392578,-84.52799987792969 C-159.5679931640625,-82.5270004272461 -155.00999450683594,-93.44000244140625 -153.81100463867188,-98.89700317382812 C-153.81100463867188,-98.89700317382812 -155.00999450683594,-83.80000305175781 -155.00999450683594,-83.80000305175781 C-155.00999450683594,-83.80000305175781 -149.4929962158203,-91.44000244140625 -146.37399291992188,-92.71299743652344 C-143.2550048828125,-93.98600006103516 -147.57400512695312,-87.25599670410156 -144.4550018310547,-85.072998046875 C-141.33599853515625,-82.88999938964844 -135.33999633789062,-89.07499694824219 -135.33999633789062,-89.07499694824219 C-135.33999633789062,-89.07499694824219 -133.89999389648438,-85.072998046875 -133.89999389648438,-85.072998046875"></path></g><g opacity="1" transform="matrix(1,0,0,1,0,0)"><path stroke-linecap="round" stroke-linejoin="round" fill-opacity="0" stroke="rgb(135,103,56)" stroke-opacity="1" stroke-width="6" d=" M-117.58799743652344,-91.62100219726562 C-117.58799743652344,-91.62100219726562 -118.78800201416016,-87.25599670410156 -118.5479965209961,-84.16400146484375 C-118.30799865722656,-81.0719985961914 -112.5510025024414,-90.3479995727539 -109.91200256347656,-90.89399719238281 C-107.27300262451172,-91.44000244140625 -108.4729995727539,-84.5270004272461 -107.51300048828125,-83.25399780273438 C-106.5530014038086,-81.98100280761719 -101.2760009765625,-89.62100219726562 -101.2760009765625,-89.62100219726562 C-101.2760009765625,-89.62100219726562 -102.4749984741211,-84.52799987792969 -96.95800018310547,-84.34600067138672 C-91.44100189208984,-84.16400146484375 -87.84300231933594,-92.52999877929688 -86.88300323486328,-88.16500091552734 C-85.9229965209961,-83.80000305175781 -85.9229965209961,-83.80000305175781 -85.9229965209961,-83.80000305175781 C-85.9229965209961,-83.80000305175781 -82.32499694824219,-83.80000305175781 -79.20600128173828,-89.43900299072266 C-79.20600128173828,-89.43900299072266 -79.68599700927734,-85.43699645996094 -75.8479995727539,-84.34600067138672 C-72.01000213623047,-83.25499725341797 -67.21199798583984,-98.53299713134766 -67.21199798583984,-98.53299713134766 C-67.21199798583984,-98.53299713134766 -69.85099792480469,-83.43599700927734 -69.85099792480469,-83.43599700927734 C-69.85099792480469,-83.43599700927734 -64.81400299072266,-90.71199798583984 -60.01599884033203,-90.71199798583984 C-55.21799850463867,-90.71199798583984 -61.933998107910156,-87.8010025024414 -56.65700149536133,-84.89099884033203 C-51.380001068115234,-81.98100280761719 -52.3390007019043,-89.43900299072266 -45.62200164794922,-89.07499694824219 C-38.904998779296875,-88.71099853515625 -38.18600082397461,-84.34600067138672 -38.18600082397461,-84.34600067138672"></path></g><g opacity="1" transform="matrix(1,0,0,1,0,0)"><path stroke-linecap="round" stroke-linejoin="round" fill-opacity="0" stroke="rgb(135,103,56)" stroke-opacity="1" stroke-width="6" d=" M-16.836000442504883,-92.53099822998047 C-16.836000442504883,-92.53099822998047 -19.475000381469727,-89.25700378417969 -18.035999298095703,-85.8010025024414 C-16.597000122070312,-82.34500122070312 -7.480999946594238,-92.53099822998047 -7.480999946594238,-92.53099822998047 C-7.480999946594238,-92.53099822998047 -10.359000205993652,-87.43800354003906 -8.4399995803833,-85.43699645996094 C-6.520999908447266,-83.43599700927734 0.675000011920929,-91.25800323486328 0.675000011920929,-91.25800323486328 C0.675000011920929,-91.25800323486328 -1.2430000305175781,-89.43900299072266 2.115000009536743,-87.0739974975586 C5.4730000495910645,-84.70899963378906 13.149999618530273,-98.89700317382812 13.149999618530273,-98.89700317382812 C13.149999618530273,-98.89700317382812 9.310999870300293,-85.43699645996094 9.310999870300293,-85.43699645996094 C9.310999870300293,-85.43699645996094 16.988000869750977,-93.80400085449219 18.906999588012695,-92.16699981689453 C20.826000213623047,-90.52999877929688 18.66699981689453,-85.25499725341797 18.66699981689453,-85.25499725341797 C18.66699981689453,-85.25499725341797 22.5049991607666,-89.62100219726562 27.062999725341797,-90.71199798583984 C31.621000289916992,-91.8030014038086 28.023000717163086,-90.16600036621094 29.70199966430664,-85.61900329589844 C31.381000518798828,-81.0719985961914 42.654998779296875,-89.25700378417969 42.654998779296875,-89.25700378417969"></path></g><g opacity="1" transform="matrix(1,0,0,1,0,0)"><path stroke-linecap="round" stroke-linejoin="round" fill-opacity="0" stroke="rgb(135,103,56)" stroke-opacity="1" stroke-width="6" d=" M59.6870002746582,-92.3489990234375 C59.6870002746582,-92.3489990234375 55.60900115966797,-79.25299835205078 55.60900115966797,-79.25299835205078 C55.60900115966797,-79.25299835205078 60.887001037597656,-90.89399719238281 64.48500061035156,-92.16699981689453 C68.08300018310547,-93.44000244140625 64.96499633789062,-89.25700378417969 66.64399719238281,-85.98300170898438 C68.322998046875,-82.70899963378906 76.71900177001953,-92.8949966430664 76.71900177001953,-92.8949966430664 C76.71900177001953,-92.8949966430664 73.36100006103516,-87.62000274658203 76.71900177001953,-85.43699645996094 C80.0770034790039,-83.25399780273438 86.07499694824219,-89.62100219726562 86.07499694824219,-89.62100219726562 C86.07499694824219,-89.62100219726562 82.47599792480469,-81.98100280761719 89.43299865722656,-85.072998046875 C96.38999938964844,-88.16500091552734 105.0260009765625,-101.98899841308594 105.0260009765625,-101.98899841308594 C105.0260009765625,-101.98899841308594 101.18800354003906,-84.89099884033203 101.18800354003906,-84.89099884033203 C101.18800354003906,-84.89099884033203 107.90399932861328,-83.0719985961914 112.46199798583984,-90.52999877929688 C112.46199798583984,-90.52999877929688 110.54299926757812,-82.70899963378906 116.30000305175781,-84.52799987792969 C122.05699920654297,-86.34700012207031 124.21600341796875,-90.16699981689453 128.7740020751953,-89.8030014038086 C133.33200073242188,-89.43900299072266 129.49400329589844,-84.52799987792969 129.49400329589844,-84.52799987792969 C129.49400329589844,-84.52799987792969 137.41099548339844,-85.25499725341797 145.08700561523438,-88.89299774169922"></path></g><g opacity="1" transform="matrix(1,0,0,1,0,0)"><path stroke-linecap="round" stroke-linejoin="round" fill-opacity="0" stroke="rgb(135,103,56)" stroke-opacity="1" stroke-width="6" d=" M-158.69000244140625,-59.277000427246094 C-158.69000244140625,-59.277000427246094 -159.6490020751953,-49.61199951171875 -159.40899658203125,-46.89899826049805 C-159.16900634765625,-44.18600082397461 -152.69200134277344,-55.715999603271484 -152.69200134277344,-55.715999603271484 C-152.69200134277344,-55.715999603271484 -152.45199584960938,-47.06800079345703 -152.45199584960938,-47.06800079345703 C-152.45199584960938,-47.06800079345703 -146.45599365234375,-55.547000885009766 -143.33700561523438,-53.512001037597656 C-140.21800231933594,-51.47700119018555 -141.6580047607422,-46.38999938964844 -141.6580047607422,-46.38999938964844 C-141.6580047607422,-46.38999938964844 -139.97799682617188,-49.27299880981445 -134.46099853515625,-50.290000915527344 C-128.94400024414062,-51.30699920654297 -127.98400115966797,-46.38999938964844 -127.98400115966797,-46.38999938964844"></path></g><g opacity="1" transform="matrix(1,0,0,1,0,0)"><path stroke-linecap="round" stroke-linejoin="round" fill-opacity="0" stroke="rgb(135,103,56)" stroke-opacity="1" stroke-width="6" d=" M-115.51000213623047,-53.34199905395508 C-115.51000213623047,-53.34199905395508 -116.94999694824219,-49.44200134277344 -116.2300033569336,-47.237998962402344 C-115.51000213623047,-45.034000396728516 -110.23300170898438,-53.512001037597656 -105.67500305175781,-52.83399963378906 C-101.11699676513672,-52.15599822998047 -106.15399932861328,-47.57699966430664 -104.71499633789062,-46.560001373291016 C-103.2760009765625,-45.542999267578125 -99.91799926757812,-49.44200134277344 -93.44100189208984,-50.79899978637695 C-86.96399688720703,-52.15599822998047 -90.56199645996094,-46.220001220703125 -90.56199645996094,-46.220001220703125 C-90.56199645996094,-46.220001220703125 -82.88600158691406,-53.34199905395508 -79.76699829101562,-58.2599983215332 C-79.76699829101562,-58.2599983215332 -81.20600128173828,-46.05099868774414 -81.20600128173828,-46.05099868774414"></path></g><g opacity="1" transform="matrix(1,0,0,1,0,0)"><path stroke-linecap="round" stroke-linejoin="round" fill-opacity="0" stroke="rgb(135,103,56)" stroke-opacity="1" stroke-width="6" d=" M-57.9379997253418,-61.82099914550781 C-57.9379997253418,-61.82099914550781 -59.85599899291992,-52.49399948120117 -60.816001892089844,-47.40700149536133 C-61.7760009765625,-42.31999969482422 -55.29899978637695,-51.645999908447266 -52.18000030517578,-53.34199905395508 C-49.06100082397461,-55.03799819946289 -50.74100112915039,-47.40700149536133 -50.74100112915039,-47.40700149536133 C-50.74100112915039,-47.40700149536133 -48.34199905395508,-51.47700119018555 -42.584999084472656,-52.83399963378906 C-36.827999114990234,-54.191001892089844 -40.42599868774414,-47.40700149536133 -40.42599868774414,-47.40700149536133 C-40.42599868774414,-47.40700149536133 -37.7869987487793,-47.57699966430664 -32.5099983215332,-48.763999938964844 C-27.232999801635742,-49.95100021362305 -28.910999298095703,-46.05099868774414 -28.910999298095703,-46.05099868774414"></path></g><g opacity="1" transform="matrix(1,0,0,1,0,0)"><path stroke-linecap="round" stroke-linejoin="round" fill-opacity="0" stroke="rgb(135,103,56)" stroke-opacity="1" stroke-width="6" d=" M-17.636999130249023,-53.68199920654297 C-17.636999130249023,-53.68199920654297 -19.31599998474121,-49.78200149536133 -18.356000900268555,-46.89899826049805 C-17.395999908447266,-44.01599884033203 -10.199999809265137,-51.64699935913086 -10.199999809265137,-51.64699935913086 C-10.199999809265137,-51.64699935913086 -9.00100040435791,-46.729000091552734 -9.00100040435791,-46.729000091552734"></path></g><g opacity="1" transform="matrix(1,0,0,1,0,0)"><path stroke-linecap="round" stroke-linejoin="round" fill-opacity="0" stroke="rgb(135,103,56)" stroke-opacity="1" stroke-width="6" d=" M6.5920000076293945,-54.189998626708984 C6.5920000076293945,-54.189998626708984 3.7130000591278076,-48.25600051879883 6.111999988555908,-46.560001373291016 C8.51099967956543,-44.86399841308594 11.149999618530273,-55.37799835205078 14.508000373840332,-56.39500045776367 C17.865999221801758,-57.4119987487793 15.706999778747559,-47.06800079345703 15.706999778747559,-47.06800079345703 C15.706999778747559,-47.06800079345703 19.06599998474121,-51.816001892089844 23.143999099731445,-51.986000061035156 C27.222000122070312,-52.15599822998047 26.50200080871582,-46.560001373291016 26.50200080871582,-46.560001373291016 C26.50200080871582,-46.560001373291016 30.81999969482422,-53.680999755859375 34.65800094604492,-53.34199905395508 C38.49599838256836,-53.00299835205078 34.65800094604492,-49.61199951171875 39.215999603271484,-46.729000091552734 C43.77399826049805,-43.84600067138672 45.2140007019043,-51.30699920654297 50.49100112915039,-51.816001892089844 C55.768001556396484,-52.32500076293945 52.888999938964844,-49.611000061035156 55.768001556396484,-47.40700149536133 C58.64699935913086,-45.202999114990234 60.566001892089844,-51.986000061035156 60.566001892089844,-51.986000061035156 C60.566001892089844,-51.986000061035156 62.244998931884766,-47.06800079345703 62.244998931884766,-47.06800079345703"></path></g><g opacity="1" transform="matrix(1,0,0,1,0,0)"><path stroke-linecap="round" stroke-linejoin="round" fill-opacity="0" stroke="rgb(135,103,56)" stroke-opacity="1" stroke-width="6" d=" M77.35800170898438,-59.277000427246094 C77.35800170898438,-59.277000427246094 74.95899963378906,-49.27299880981445 75.1989974975586,-47.57699966430664 C75.43900299072266,-45.88100051879883 83.11499786376953,-54.69900131225586 83.11499786376953,-54.69900131225586 C83.11499786376953,-54.69900131225586 82.15499877929688,-53.00299835205078 82.875,-48.42499923706055 C83.59500122070312,-43.84700012207031 90.552001953125,-52.154998779296875 90.552001953125,-52.154998779296875 C90.552001953125,-52.154998779296875 87.43299865722656,-47.237998962402344 91.27100372314453,-47.237998962402344 C95.10900115966797,-47.237998962402344 97.26899719238281,-52.49399948120117 103.0260009765625,-52.66400146484375 C108.78299713134766,-52.83399963378906 103.98600006103516,-51.64699935913086 103.0260009765625,-47.237998962402344 C102.06600189208984,-42.82899856567383 113.58100128173828,-51.13800048828125 113.58100128173828,-51.13800048828125 C113.58100128173828,-51.13800048828125 114.54000091552734,-47.06800079345703 114.54000091552734,-47.06800079345703 C114.54000091552734,-47.06800079345703 120.2969970703125,-48.93299865722656 122.93599700927734,-52.66400146484375 C125.57499694824219,-56.39500045776367 123.89600372314453,-47.237998962402344 123.89600372314453,-47.237998962402344 C123.89600372314453,-47.237998962402344 129.89300537109375,-47.91699981689453 132.29200744628906,-51.30799865722656"></path></g><g opacity="1" transform="matrix(1,0,0,1,0,0)"><path stroke-linecap="round" stroke-linejoin="round" fill-opacity="0" stroke="rgb(135,103,56)" stroke-opacity="1" stroke-width="6" d=" M142.60699462890625,-58.9379997253418 C142.60699462890625,-58.9379997253418 141.64700317382812,-48.42499923706055 141.88699340820312,-47.91600036621094 C142.1269989013672,-47.40700149536133 144.76600646972656,-54.189998626708984 148.60400390625,-54.52899932861328 C152.44200134277344,-54.86800003051758 150.04299926757812,-47.91600036621094 150.04299926757812,-47.91600036621094 C150.04299926757812,-47.91600036621094 157,-51.30799865722656 157,-51.30799865722656"></path></g><g opacity="1" transform="matrix(1,0,0,1,0,0)"><path stroke-linecap="round" stroke-linejoin="round" fill-opacity="0" stroke="rgb(135,103,56)" stroke-opacity="1" stroke-width="6" d=" M-156.3300018310547,-28.200000762939453 C-156.3300018310547,-28.200000762939453 -157.40899658203125,-14.156999588012695 -157.22900390625,-12.173999786376953 C-157.0489959716797,-10.190999984741211 -154.71099853515625,-16.30500030517578 -152.19200134277344,-18.947999954223633 C-149.67300415039062,-21.590999603271484 -150.39300537109375,-12.008999824523926 -150.39300537109375,-12.008999824523926 C-150.39300537109375,-12.008999824523926 -146.07400512695312,-20.764999389648438 -144.81500244140625,-25.22599983215332 C-143.55599975585938,-29.687000274658203 -144.27499389648438,-12.33899974822998 -144.27499389648438,-12.33899974822998 C-144.27499389648438,-12.33899974822998 -136.8990020751953,-18.783000946044922 -136.8990020751953,-18.783000946044922 C-136.8990020751953,-18.783000946044922 -140.13800048828125,-12.670000076293945 -135.63999938964844,-12.008999824523926 C-131.14199829101562,-11.347999572753906 -128.80299377441406,-16.96500015258789 -127.36399841308594,-15.312999725341797 C-125.92500305175781,-13.66100025177002 -123.94599914550781,-8.704999923706055 -118.90799713134766,-17.461000442504883 C-113.87000274658203,-26.216999053955078 -118.18800354003906,-11.678999900817871 -118.18800354003906,-11.678999900817871 C-118.18800354003906,-11.678999900817871 -113.51000213623047,-11.182999610900879 -109.37200164794922,-14.817999839782715 C-105.23400115966797,-18.452999114990234 -105.77400207519531,-11.182999610900879 -105.77400207519531,-11.182999610900879 C-105.77400207519531,-11.182999610900879 -100.73600006103516,-11.513999938964844 -96.05799865722656,-14.156999588012695"></path></g><g opacity="1" transform="matrix(1,0,0,1,0,0)"><path stroke-linecap="round" stroke-linejoin="round" fill-opacity="0" stroke="rgb(135,103,56)" stroke-opacity="1" stroke-width="6" d=" M-85.62300109863281,-20.764999389648438 C-85.62300109863281,-20.764999389648438 -87.24299621582031,-13.826000213623047 -86.88300323486328,-11.512999534606934 C-86.52300262451172,-9.199999809265137 -83.1050033569336,-17.957000732421875 -80.40599822998047,-18.783000946044922 C-77.70700073242188,-19.608999252319336 -81.30500030517578,-13.991999626159668 -77.16699981689453,-11.017999649047852 C-73.02899932861328,-8.043999671936035 -70.51100158691406,-13.331000328063965 -70.51100158691406,-13.331000328063965 C-70.51100158691406,-13.331000328063965 -71.41000366210938,-7.382999897003174 -66.73200225830078,-11.017999649047852 C-62.05400085449219,-14.652999877929688 -61.875,-23.90399932861328 -61.875,-23.90399932861328"></path></g><g opacity="1" transform="matrix(1,0,0,1,0,0)"><path stroke-linecap="round" stroke-linejoin="round" fill-opacity="0" stroke="rgb(135,103,56)" stroke-opacity="1" stroke-width="6" d=" M-48.74100112915039,-25.886999130249023 C-48.74100112915039,-25.886999130249023 -50.900001525878906,-13.826000213623047 -50.540000915527344,-11.512999534606934 C-50.18000030517578,-9.199999809265137 -44.42300033569336,-20.764999389648438 -43.16400146484375,-17.625999450683594 C-41.904998779296875,-14.487000465393066 -43.16400146484375,-11.017999649047852 -40.82500076293945,-10.852999687194824 C-38.486000061035156,-10.687999725341797 -34.347999572753906,-15.644000053405762 -34.347999572753906,-15.644000053405762 C-34.347999572753906,-15.644000053405762 -37.58700180053711,-10.026000022888184 -32.909000396728516,-10.026000022888184 C-28.231000900268555,-10.026000022888184 -24.452999114990234,-16.138999938964844 -24.452999114990234,-16.138999938964844 C-24.452999114990234,-16.138999938964844 -23.19300079345703,-11.017999649047852 -23.19300079345703,-11.017999649047852 C-23.19300079345703,-11.017999649047852 -22.652999877929688,-6.390999794006348 -18.334999084472656,-12.173999786376953 C-14.017000198364258,-17.957000732421875 -10.958999633789062,-26.382999420166016 -10.958999633789062,-26.382999420166016 C-10.958999633789062,-26.382999420166016 -15.63700008392334,-10.852999687194824 -12.758000373840332,-10.192000389099121 C-9.878999710083008,-9.531000137329102 -1.9630000591278076,-18.45199966430664 -1.9630000591278076,-18.45199966430664 C-1.9630000591278076,-18.45199966430664 -3.5829999446868896,-13.496000289916992 -1.4240000247955322,-10.687000274658203 C0.7350000143051147,-7.877999782562256 4.693999767303467,-14.321999549865723 4.693999767303467,-14.321999549865723 C4.693999767303467,-14.321999549865723 3.075000047683716,-9.531000137329102 8.472000122070312,-10.357000350952148 C13.869000434875488,-11.182999610900879 15.48799991607666,-23.077999114990234 15.48799991607666,-23.077999114990234 C15.48799991607666,-23.077999114990234 15.847999572753906,-13.826000213623047 18.006999969482422,-10.687000274658203"></path></g><g opacity="1" transform="matrix(1,0,0,1,0,0)"><path stroke-linecap="round" stroke-linejoin="round" fill-opacity="0" stroke="rgb(135,103,56)" stroke-opacity="1" stroke-width="6" d=" M32.7599983215332,-18.947999954223633 C32.7599983215332,-18.947999954223633 30.7810001373291,-15.642999649047852 32.58000183105469,-11.512999534606934 C34.37900161743164,-7.382999897003174 38.696998596191406,-16.96500015258789 38.696998596191406,-16.96500015258789 C38.696998596191406,-16.96500015258789 37.4379997253418,-14.652000427246094 39.05699920654297,-11.182999610900879 C40.67599868774414,-7.714000225067139 47.69300079345703,-27.04400062561035 47.69300079345703,-27.04400062561035 C47.69300079345703,-27.04400062561035 43.55500030517578,-16.635000228881836 46.972999572753906,-11.678999900817871 C50.39099884033203,-6.7230000495910645 56.68899917602539,-15.973999977111816 56.68899917602539,-15.973999977111816 C56.68899917602539,-15.973999977111816 55.42900085449219,-12.008999824523926 60.46699905395508,-10.357000350952148 C65.50499725341797,-8.704999923706055 70.9020004272461,-18.45199966430664 70.9020004272461,-18.45199966430664 C70.9020004272461,-18.45199966430664 70.9020004272461,-10.522000312805176 70.9020004272461,-10.522000312805176"></path></g><g opacity="1" transform="matrix(1,0,0,1,0,0)"><path stroke-linecap="round" stroke-linejoin="round" fill-opacity="0" stroke="rgb(135,103,56)" stroke-opacity="1" stroke-width="6" d=" M83.49600219726562,-20.930999755859375 C83.49600219726562,-20.930999755859375 82.41600036621094,-13.82699966430664 82.59600067138672,-11.678999900817871 C82.7760009765625,-9.531000137329102 88.89299774169922,-19.444000244140625 88.89299774169922,-19.444000244140625 C88.89299774169922,-19.444000244140625 88.71399688720703,-14.321999549865723 90.69300079345703,-11.843999862670898 C92.6719970703125,-9.366000175476074 98.42900085449219,-18.947999954223633 98.42900085449219,-18.947999954223633 C98.42900085449219,-18.947999954223633 97.70899963378906,-15.14799976348877 99.86799621582031,-11.678999900817871 C102.0270004272461,-8.210000038146973 109.40399932861328,-26.382999420166016 109.40399932861328,-26.382999420166016 C109.40399932861328,-26.382999420166016 110.84300231933594,-11.347999572753906 110.84300231933594,-11.347999572753906"></path></g><g opacity="1" transform="matrix(1,0,0,1,0,0)"><path stroke-linecap="round" stroke-linejoin="round" fill-opacity="0" stroke="rgb(135,103,56)" stroke-opacity="1" stroke-width="6" d=" M126.8550033569336,-23.90399932861328 C126.8550033569336,-23.90399932861328 125.7750015258789,-17.62700080871582 126.49500274658203,-12.505000114440918 C127.21499633789062,-7.382999897003174 136.031005859375,-21.922000885009766 136.031005859375,-21.922000885009766 C136.031005859375,-21.922000885009766 135.49099731445312,-16.801000595092773 136.031005859375,-12.505000114440918 C136.5709991455078,-8.208999633789062 141.78799438476562,-18.617000579833984 144.3070068359375,-17.625999450683594 C146.8260040283203,-16.635000228881836 145.74600219726562,-11.843999862670898 145.74600219726562,-11.843999862670898 C145.74600219726562,-11.843999862670898 151.6840057373047,-17.131000518798828 153.30299377441406,-24.06999969482422 C154.9219970703125,-31.009000778198242 152.9429931640625,-11.678999900817871 152.9429931640625,-11.678999900817871"></path></g><g opacity="1" transform="matrix(1,0,0,1,0,0)"><path stroke-linecap="round" stroke-linejoin="round" fill-opacity="0" stroke="rgb(135,103,56)" stroke-opacity="1" stroke-width="6" d=" M-156.9290008544922,11.588000297546387 C-156.9290008544922,11.588000297546387 -158.00900268554688,22.850000381469727 -158.00900268554688,25.784000396728516 C-158.00900268554688,28.718000411987305 -153.6909942626953,19.253999710083008 -151.1719970703125,19.253999710083008 C-148.6529998779297,19.253999710083008 -149.4929962158203,25.784000396728516 -149.4929962158203,25.784000396728516 C-149.4929962158203,25.784000396728516 -143.13600158691406,21.71500015258789 -140.73699951171875,18.7810001373291 C-138.33799743652344,15.847000122070312 -141.93600463867188,24.364999771118164 -140.2570037841797,26.163000106811523 C-138.5780029296875,27.961000442504883 -134.26100158691406,20.01099967956543 -131.5019989013672,21.430999755859375 C-128.7429962158203,22.85099983215332 -131.26199340820312,23.60700035095215 -128.38299560546875,25.5 C-125.50399780273438,27.39299964904785 -119.98699951171875,23.323999404907227 -119.98699951171875,23.323999404907227"></path></g><g opacity="1" transform="matrix(1,0,0,1,0,0)"><path stroke-linecap="round" stroke-linejoin="round" fill-opacity="0" stroke="rgb(135,103,56)" stroke-opacity="1" stroke-width="6" d=" M-109.31199645996094,20.027000427246094 C-109.31199645996094,20.027000427246094 -110.51200103759766,22.961000442504883 -109.552001953125,25.32699966430664 C-108.59200286865234,27.69300079345703 -105.11399841308594,16.902999877929688 -103.79499816894531,20.405000686645508 C-102.47599792480469,23.906999588012695 -102.23500061035156,26.55699920654297 -102.23500061035156,26.55699920654297 C-102.23500061035156,26.55699920654297 -96.11799621582031,22.29800033569336 -94.1989974975586,19.36400032043457 C-92.27999877929688,16.43000030517578 -96.11799621582031,26.840999603271484 -91.80000305175781,26.93600082397461 C-87.48200225830078,27.0310001373291 -84.96399688720703,22.20400047302246 -84.96399688720703,22.20400047302246 C-84.96399688720703,22.20400047302246 -83.16400146484375,27.69300079345703 -79.44599914550781,26.46299934387207 C-75.72799682617188,25.232999801635742 -70.33100128173828,16.052000045776367 -70.33100128173828,21.256999969482422 C-70.33100128173828,26.461999893188477 -71.6500015258789,28.356000900268555 -67.21199798583984,26.652000427246094 C-62.77399826049805,24.947999954223633 -60.13600158691406,18.496999740600586 -60.13600158691406,18.496999740600586 C-60.13600158691406,18.496999740600586 -61.09600067138672,27.20400047302246 -57.97700119018555,27.58300018310547 C-54.858001708984375,27.961999893188477 -51.85900115966797,18.21299934387207 -51.85900115966797,18.21299934387207 C-51.85900115966797,18.21299934387207 -55.097999572753906,35.9109992980957 -55.097999572753906,35.9109992980957 C-55.097999572753906,35.9109992980957 -50.060001373291016,20.95800018310547 -46.34199905395508,19.349000930786133 C-42.624000549316406,17.739999771118164 -43.104000091552734,25.690000534057617 -43.104000091552734,25.690000534057617 C-43.104000091552734,25.690000534057617 -36.867000579833984,25.121000289916992 -32.66899871826172,19.916000366210938 C-32.66899871826172,19.916000366210938 -35.1879997253418,26.06800079345703 -30.149999618530273,26.163000106811523 C-25.11199951171875,26.257999420166016 -18.7549991607666,11.208999633789062 -18.7549991607666,11.208999633789062 C-18.7549991607666,11.208999633789062 -21.753999710083008,26.826000213623047 -21.753999710083008,26.826000213623047"></path></g><g opacity="1" transform="matrix(1,0,0,1,0,0)"><path stroke-linecap="round" stroke-linejoin="round" fill-opacity="0" stroke="rgb(135,103,56)" stroke-opacity="1" stroke-width="6" d=" M-6.10099983215332,12.817999839782715 C-6.10099983215332,12.817999839782715 -8.800000190734863,23.891000747680664 -9.15999984741211,26.020999908447266 C-9.520000457763672,28.150999069213867 -2.503000020980835,18.638999938964844 0.01600000075995922,18.21299934387207 C2.5350000858306885,17.78700065612793 -1.6030000448226929,24.176000595092773 0.01600000075995922,26.589000701904297 C1.6349999904632568,29.00200080871582 9.371000289916992,20.341999053955078 9.371000289916992,20.341999053955078 C9.371000289916992,20.341999053955078 9.730999946594238,26.731000900268555 9.730999946594238,26.731000900268555"></path></g><g opacity="1" transform="matrix(1,0,0,1,0,0)"><path stroke-linecap="round" stroke-linejoin="round" fill-opacity="0" stroke="rgb(135,103,56)" stroke-opacity="1" stroke-width="6" d=" M23.944000244140625,14.522000312805176 C23.944000244140625,14.522000312805176 21.424999237060547,22.187999725341797 21.78499984741211,25.594999313354492 C22.145000457763672,29.00200080871582 28.261999130249023,17.929000854492188 30.240999221801758,17.78700065612793 C32.220001220703125,17.645000457763672 30.60099983215332,25.73699951171875 30.60099983215332,25.73699951171875 C30.60099983215332,25.73699951171875 35.99800109863281,20.625999450683594 38.516998291015625,20.058000564575195 C41.0359992980957,19.489999771118164 36.17900085449219,23.040000915527344 39.41699981689453,26.020999908447266 C42.654998779296875,29.00200080871582 48.95199966430664,19.916000366210938 48.95199966430664,19.916000366210938 C48.95199966430664,19.916000366210938 45.17399978637695,26.589000701904297 51.6510009765625,26.020999908447266 C58.12799835205078,25.452999114990234 62.805999755859375,18.21299934387207 62.805999755859375,18.21299934387207 C62.805999755859375,18.21299934387207 60.106998443603516,25.16900062561035 64.42500305175781,26.30500030517578 C68.74299621582031,27.44099998474121 73.4209976196289,9.694999694824219 73.4209976196289,9.694999694824219 C73.4209976196289,9.694999694824219 72.16200256347656,22.61400032043457 73.60099792480469,26.30500030517578 C75.04000091552734,29.996000289916992 78.45899963378906,21.194000244140625 82.41699981689453,21.052000045776367 C86.375,20.90999984741211 86.73400115966797,26.44700050354004 86.73400115966797,26.44700050354004"></path></g><g opacity="1" transform="matrix(1,0,0,1,0,0)"><path stroke-linecap="round" stroke-linejoin="round" fill-opacity="0" stroke="rgb(135,103,56)" stroke-opacity="1" stroke-width="6" d=" M112.10199737548828,20.483999252319336 C112.10199737548828,20.483999252319336 108.68399810791016,24.601999282836914 110.84300231933594,27.156999588012695 C113.00199890136719,29.711999893188477 120.55799865722656,18.354999542236328 120.55799865722656,18.354999542236328 C120.55799865722656,18.354999542236328 116.77999877929688,26.30500030517578 121.0979995727539,27.44099998474121 C125.41600036621094,28.57699966430664 133.15199279785156,17.929000854492188 133.15199279785156,17.929000854492188 C133.15199279785156,17.929000854492188 126.13600158691406,34.39699935913086 126.13600158691406,34.39699935913086 C126.13600158691406,34.39699935913086 134.5919952392578,18.7810001373291 138.91000366210938,17.645000457763672 C143.22799682617188,16.509000778198242 139.98899841308594,26.731000900268555 139.98899841308594,26.731000900268555 C139.98899841308594,26.731000900268555 146.28599548339844,28.009000778198242 151.32400512695312,23.607999801635742 C156.36199951171875,19.207000732421875 153.1230010986328,26.44700050354004 153.1230010986328,26.44700050354004"></path></g><g opacity="1" transform="matrix(1,0,0,1,0,0)"><path stroke-linecap="round" stroke-linejoin="round" fill-opacity="0" stroke="rgb(135,103,56)" stroke-opacity="1" stroke-width="6" d=" M-156.69000244140625,52.25199890136719 C-156.69000244140625,52.25199890136719 -158.3090057373047,56.68600082397461 -158.12899780273438,62.00699996948242 C-157.94900512695312,67.3280029296875 -149.31300354003906,52.75899887084961 -149.31300354003906,52.75899887084961 C-149.31300354003906,52.75899887084961 -151.65199279785156,59.72700119018555 -149.13299560546875,62.13399887084961 C-146.61399841308594,64.54100036621094 -140.4969940185547,57.44599914550781 -140.4969940185547,57.44599914550781 C-140.4969940185547,57.44599914550781 -141.39700317382812,60.7400016784668 -138.33799743652344,62.89400100708008 C-135.2790069580078,65.0479965209961 -129.70199584960938,50.60499954223633 -129.70199584960938,50.60499954223633 C-129.70199584960938,50.60499954223633 -128.98300170898438,58.84000015258789 -129.34300231933594,62.513999938964844 C-129.7030029296875,66.18800354003906 -122.32599639892578,54.91299819946289 -120.16699981689453,58.459999084472656 C-118.00800323486328,62.00699996948242 -116.9280014038086,62.513999938964844 -116.9280014038086,62.513999938964844"></path></g><g opacity="1" transform="matrix(1,0,0,1,0,0)"><path stroke-linecap="round" stroke-linejoin="round" fill-opacity="0" stroke="rgb(135,103,56)" stroke-opacity="1" stroke-width="6" d=" M-105.59400177001953,57.19300079345703 C-105.59400177001953,57.19300079345703 -107.03299713134766,59.97999954223633 -105.9540023803711,63.020999908447266 C-104.875,66.06199645996094 -96.95800018310547,58.459999084472656 -96.95800018310547,58.459999084472656 C-96.95800018310547,58.459999084472656 -96.23799896240234,63.4010009765625 -96.23799896240234,63.4010009765625 C-96.23799896240234,63.4010009765625 -90.84100341796875,48.832000732421875 -90.84100341796875,48.832000732421875 C-90.84100341796875,48.832000732421875 -91.56099700927734,63.020999908447266 -91.56099700927734,63.020999908447266"></path></g><g opacity="1" transform="matrix(1,0,0,1,0,0)"><path stroke-linecap="round" stroke-linejoin="round" fill-opacity="0" stroke="rgb(135,103,56)" stroke-opacity="1" stroke-width="6" d=" M-80.22599792480469,57.19300079345703 C-80.22599792480469,57.19300079345703 -81.84500122070312,61.500999450683594 -82.0250015258789,65.55500030517578 C-82.20500183105469,69.60900115966797 -77.70700073242188,59.472999572753906 -75.00800323486328,58.33300018310547 C-72.30899810791016,57.19300079345703 -77.16799926757812,62.132999420166016 -72.66999816894531,63.14699935913086 C-68.1719970703125,64.16100311279297 -62.59400177001953,58.33300018310547 -62.59400177001953,58.33300018310547 C-62.59400177001953,58.33300018310547 -65.83300018310547,63.27399826049805 -59.715999603271484,63.27399826049805 C-53.5989990234375,63.27399826049805 -48.92100143432617,51.87200164794922 -48.92100143432617,51.87200164794922 C-48.92100143432617,51.87200164794922 -55.39699935913086,62.132999420166016 -49.81999969482422,63.14699935913086 C-44.24300003051758,64.16100311279297 -43.16400146484375,57.19300079345703 -38.84600067138672,56.8129997253418 C-34.52799987792969,56.43299865722656 -42.80400085449219,62.2599983215332 -37.58599853515625,63.65399932861328 C-32.36800003051758,65.0479965209961 -23.732999801635742,54.53300094604492 -23.732999801635742,54.53300094604492 C-23.732999801635742,54.53300094604492 -23.913000106811523,58.33399963378906 -23.37299919128418,62.64099884033203 C-22.83300018310547,66.947998046875 -14.737000465393066,49.3380012512207 -14.737000465393066,49.3380012512207 C-14.737000465393066,49.3380012512207 -16.176000595092773,60.106998443603516 -14.737000465393066,63.020999908447266 C-13.29800033569336,65.93499755859375 -3.5829999446868896,58.7130012512207 -3.5829999446868896,58.7130012512207 C-3.5829999446868896,58.7130012512207 -6.10099983215332,60.99300003051758 -0.5239999890327454,63.14699935913086 C5.052999973297119,65.3010025024414 11.35099983215332,57.19300079345703 14.58899974822998,59.97999954223633 C17.82699966430664,62.766998291015625 18.726999282836914,63.27399826049805 18.726999282836914,63.27399826049805"></path></g><g opacity="1" transform="matrix(1,0,0,1,0,0)"><path stroke-linecap="round" stroke-linejoin="round" fill-opacity="0" stroke="rgb(135,103,56)" stroke-opacity="1" stroke-width="6" d=" M29.881999969482422,58.58700180053711 C29.881999969482422,58.58700180053711 27.542999267578125,62.13399887084961 28.802000045776367,63.52799987792969 C30.06100082397461,64.9219970703125 37.4379997253418,52.75899887084961 37.4379997253418,52.75899887084961 C37.4379997253418,52.75899887084961 34.73899841308594,64.28700256347656 37.79800033569336,64.03399658203125 C40.856998443603516,63.78099822998047 45.7140007019043,54.0260009765625 47.15299987792969,57.70000076293945 C48.59199905395508,61.374000549316406 46.9739990234375,63.78099822998047 48.233001708984375,64.41400146484375 C49.492000579833984,65.0469970703125 56.86899948120117,58.7130012512207 56.86899948120117,58.7130012512207 C56.86899948120117,58.7130012512207 60.46699905395508,63.52799987792969 60.46699905395508,63.52799987792969"></path></g><g opacity="1" transform="matrix(1,0,0,1,0,0)"><path stroke-linecap="round" stroke-linejoin="round" fill-opacity="0" stroke="rgb(135,103,56)" stroke-opacity="1" stroke-width="6" d=" M72.88099670410156,58.207000732421875 C72.88099670410156,58.207000732421875 71.08200073242188,63.27399826049805 71.62200164794922,64.03399658203125 C72.16200256347656,64.79399871826172 79.89800262451172,52.75899887084961 79.53800201416016,57.952999114990234 C79.1780014038086,63.14699935913086 77.01899719238281,66.06099700927734 83.31600189208984,64.16100311279297 C89.61299896240234,62.26100158691406 95.37000274658203,55.03900146484375 95.37000274658203,55.03900146484375 C95.37000274658203,55.03900146484375 93.39099884033203,62.00699996948242 94.29100036621094,64.16100311279297 C95.19100189208984,66.31500244140625 103.82599639892578,58.58700180053711 103.82599639892578,58.58700180053711"></path></g><g opacity="1" transform="matrix(1,0,0,1,0,0)"><path stroke-linecap="round" stroke-linejoin="round" fill-opacity="0" stroke="rgb(135,103,56)" stroke-opacity="1" stroke-width="6" d=" M118.21900177001953,56.18000030517578 C118.21900177001953,56.18000030517578 116.23999786376953,59.72700119018555 116.95999908447266,63.52799987792969 C117.68000030517578,67.3290023803711 126.49500274658203,58.7130012512207 126.49500274658203,58.7130012512207 C126.49500274658203,58.7130012512207 125.05599975585938,60.106998443603516 127.03500366210938,64.03399658203125 C129.01400756835938,67.96099853515625 137.64999389648438,52.75899887084961 137.64999389648438,52.75899887084961 C137.64999389648438,52.75899887084961 132.61300659179688,62.64099884033203 136.031005859375,64.16100311279297 C139.44900512695312,65.68099975585938 147.18600463867188,56.305999755859375 147.18600463867188,56.305999755859375 C147.18600463867188,56.305999755859375 146.8260040283203,64.16100311279297 146.8260040283203,64.16100311279297"></path></g><g opacity="1" transform="matrix(1,0,0,1,0,0)"><path stroke-linecap="round" stroke-linejoin="round" fill-opacity="0" stroke="rgb(135,103,56)" stroke-opacity="1" stroke-width="6" d=" M-158.8350067138672,90.09600067138672 C-158.8350067138672,90.09600067138672 -161.47300720214844,93.49700164794922 -160.03399658203125,97.08699798583984 C-158.59500122070312,100.677001953125 -149.47900390625,90.09600067138672 -149.47900390625,90.09600067138672 C-149.47900390625,90.09600067138672 -152.35800170898438,95.38700103759766 -150.43899536132812,97.46499633789062 C-148.52000427246094,99.54299926757812 -141.322998046875,91.41899871826172 -141.322998046875,91.41899871826172 C-141.322998046875,91.41899871826172 -143.24200439453125,93.30799865722656 -139.88400268554688,95.76399993896484 C-136.5260009765625,98.22000122070312 -128.8489990234375,83.48300170898438 -128.8489990234375,83.48300170898438 C-128.8489990234375,83.48300170898438 -132.68699645996094,97.46499633789062 -132.68699645996094,97.46499633789062 C-132.68699645996094,97.46499633789062 -125.01100158691406,88.77400207519531 -123.09200286865234,90.4739990234375 C-121.1729965209961,92.17400360107422 -123.33100128173828,97.65399932861328 -123.33100128173828,97.65399932861328"></path></g><g opacity="1" transform="matrix(1,0,0,1,0,0)"><path stroke-linecap="round" stroke-linejoin="round" fill-opacity="0" stroke="rgb(135,103,56)" stroke-opacity="1" stroke-width="6" d=" M-100.41999816894531,89.65599822998047 C-100.41999816894531,89.65599822998047 -101.62000274658203,94.19000244140625 -101.37999725341797,97.4020004272461 C-101.13999938964844,100.61399841308594 -95.38300323486328,90.97799682617188 -92.74400329589844,90.41100311279297 C-90.1050033569336,89.84400177001953 -91.30500030517578,97.02400207519531 -90.34500122070312,98.34700012207031 C-89.38500213623047,99.66999816894531 -84.10800170898438,91.73400115966797 -84.10800170898438,91.73400115966797 C-84.10800170898438,91.73400115966797 -85.30699920654297,97.02400207519531 -79.79000091552734,97.21299743652344 C-74.27300262451172,97.4020004272461 -70.67500305175781,88.71099853515625 -69.71499633789062,93.24600219726562 C-68.75499725341797,97.78099822998047 -68.75599670410156,97.77999877929688 -68.75599670410156,97.77999877929688 C-68.75599670410156,97.77999877929688 -65.15799713134766,97.77999877929688 -62.03900146484375,91.9229965209961 C-62.03900146484375,91.9229965209961 -62.518001556396484,96.0790023803711 -58.68000030517578,97.21299743652344 C-54.84199905395508,98.34700012207031 -50.04399871826172,82.47599792480469 -50.04399871826172,82.47599792480469 C-50.04399871826172,82.47599792480469 -52.68299865722656,98.15799713134766 -52.68299865722656,98.15799713134766 C-52.68299865722656,98.15799713134766 -47.645999908447266,90.5999984741211 -42.847999572753906,90.5999984741211 C-38.04999923706055,90.5999984741211 -44.766998291015625,93.62300109863281 -39.4900016784668,96.64600372314453"></path></g><g opacity="1" transform="matrix(1,0,0,1,0,0)"><path stroke-linecap="round" stroke-linejoin="round" fill-opacity="0" stroke="rgb(135,103,56)" stroke-opacity="1" stroke-width="6" d=" M32.46500015258789,87.73999786376953 C32.46500015258789,87.73999786376953 30.19099998474121,97.14199829101562 31.61199951171875,98.03800201416016 C33.03300094604492,98.93399810791016 36.729000091552734,94.23200225830078 39.00299835205078,87.29199981689453 C39.00299835205078,87.29199981689453 36.729000091552734,91.54499816894531 38.433998107910156,97.36599731445312 C40.138999938964844,103.18699645996094 46.96200180053711,91.0979995727539 46.96200180053711,91.0979995727539 C46.96200180053711,91.0979995727539 44.6879997253418,97.14199829101562 47.529998779296875,97.36599731445312 C50.37200164794922,97.58999633789062 54.92100143432617,92.66500091552734 54.92100143432617,92.66500091552734 C54.92100143432617,92.66500091552734 52.930999755859375,96.47100067138672 54.06800079345703,97.58999633789062 C55.20500183105469,98.70899963378906 63.731998443603516,89.75499725341797 63.731998443603516,89.75499725341797 C63.731998443603516,89.75499725341797 61.74300003051758,92.88899993896484 62.31100082397461,97.14299774169922 C62.87900161743164,101.39700317382812 65.72200012207031,94.90299987792969 70.2699966430664,93.55999755859375 C74.81800079345703,92.21700286865234 76.23899841308594,96.69499969482422 76.23899841308594,96.69499969482422"></path></g><g opacity="1" transform="matrix(1,0,0,1,0,0)"><path stroke-linecap="round" stroke-linejoin="round" fill-opacity="0" stroke="rgb(135,103,56)" stroke-opacity="1" stroke-width="6" d=" M89.28800201416016,89.33999633789062 C89.28800201416016,89.33999633789062 86.6500015258789,92.74099731445312 88.08899688720703,96.33100128173828 C89.52799987792969,99.9209976196289 98.64399719238281,89.33999633789062 98.64399719238281,89.33999633789062 C98.64399719238281,89.33999633789062 95.76499938964844,94.63099670410156 97.68399810791016,96.70899963378906 C99.60299682617188,98.78700256347656 106.80000305175781,90.66300201416016 106.80000305175781,90.66300201416016 C106.80000305175781,90.66300201416016 104.88099670410156,92.552001953125 108.23899841308594,95.00800323486328 C111.59700012207031,97.46399688720703 119.27400207519531,82.72799682617188 119.27400207519531,82.72799682617188 C119.27400207519531,82.72799682617188 115.43599700927734,96.70899963378906 115.43599700927734,96.70899963378906 C115.43599700927734,96.70899963378906 123.11199951171875,88.01799774169922 125.03099822998047,89.71800231933594 C126.94999694824219,91.41799926757812 124.79100036621094,96.89800262451172 124.79100036621094,96.89800262451172 C124.79100036621094,96.89800262451172 128.62899780273438,92.36399841308594 133.18699645996094,91.2300033569336 C137.7449951171875,90.09600067138672 134.14700317382812,91.7969970703125 135.8260040283203,96.5199966430664 C137.5050048828125,101.24299621582031 148.77999877929688,92.74099731445312 148.77999877929688,92.74099731445312"></path></g><g opacity="1" transform="matrix(1,0,0,1,0,0)"><path stroke-linecap="round" stroke-linejoin="round" fill-opacity="0" stroke="rgb(135,103,56)" stroke-opacity="1" stroke-width="6" d=" M-11.319000244140625,79.90499877929688 C-11.319000244140625,79.90499877929688 -13.237000465393066,90.2969970703125 -14.196999549865723,95.96499633789062 C-15.156999588012695,101.63300323486328 -8.680999755859375,91.24099731445312 -5.561999797821045,89.35199737548828 C-2.443000078201294,87.46299743652344 -4.122000217437744,95.96499633789062 -4.122000217437744,95.96499633789062 C-4.122000217437744,95.96499633789062 -1.7230000495910645,91.43099975585938 4.033999919891357,89.91899871826172 C9.791000366210938,88.40699768066406 6.192999839782715,95.96499633789062 6.192999839782715,95.96499633789062 C6.192999839782715,95.96499633789062 8.831999778747559,95.7760009765625 14.109000205993652,94.4530029296875 C19.38599967956543,93.12999725341797 17.707000732421875,97.47699737548828 17.707000732421875,97.47699737548828"></path></g><g opacity="1" transform="matrix(1,0,0,1,0,0)"><path stroke-linecap="round" stroke-linejoin="round" fill-opacity="0" stroke="rgb(135,103,56)" stroke-opacity="1" stroke-width="6" d=" M-160.00999450683594,117.1050033569336 C-160.00999450683594,117.1050033569336 -161.92799377441406,127.31500244140625 -162.88800048828125,132.88400268554688 C-163.84800720214844,138.4530029296875 -157.3719940185547,128.2429962158203 -154.2530059814453,126.38700103759766 C-151.13400268554688,124.53099822998047 -152.81300354003906,132.88400268554688 -152.81300354003906,132.88400268554688 C-152.81300354003906,132.88400268554688 -150.41400146484375,128.4290008544922 -144.65699768066406,126.94400024414062 C-138.89999389648438,125.45899963378906 -142.4980010986328,132.88400268554688 -142.4980010986328,132.88400268554688 C-142.4980010986328,132.88400268554688 -139.85899353027344,132.697998046875 -134.58200073242188,131.3990020751953 C-129.30499267578125,130.10000610351562 -130.98399353027344,134.36900329589844 -130.98399353027344,134.36900329589844"></path></g><g opacity="1" transform="matrix(1,0,0,1,0,0)"><path stroke-linecap="round" stroke-linejoin="round" fill-opacity="0" stroke="rgb(135,103,56)" stroke-opacity="1" stroke-width="6" d=" M-116.10700225830078,126.5530014038086 C-116.10700225830078,126.5530014038086 -117.30599975585938,129.43099975585938 -116.34600067138672,131.75100708007812 C-115.38600158691406,134.0709991455078 -111.90799713134766,123.48999786376953 -110.58899688720703,126.92400360107422 C-109.2699966430664,130.35800170898438 -109.02999877929688,132.95700073242188 -109.02999877929688,132.95700073242188 C-109.02999877929688,132.95700073242188 -102.91300201416016,128.77999877929688 -100.99400329589844,125.90299987792969 C-99.07499694824219,123.0260009765625 -102.91300201416016,133.23500061035156 -98.59500122070312,133.3280029296875 C-94.2770004272461,133.42100524902344 -91.75800323486328,128.68800354003906 -91.75800323486328,128.68800354003906 C-91.75800323486328,128.68800354003906 -89.95899963378906,134.0709991455078 -86.24099731445312,132.86399841308594 C-82.52300262451172,131.65699768066406 -77.125,122.65499877929688 -77.125,127.76000213623047 C-77.125,132.86500549316406 -78.44499969482422,134.7209930419922 -74.00700378417969,133.0500030517578 C-69.56900024414062,131.37899780273438 -66.93000030517578,125.052001953125 -66.93000030517578,125.052001953125 C-66.93000030517578,125.052001953125 -67.88999938964844,133.5919952392578 -64.77100372314453,133.96299743652344 C-61.652000427246094,134.33399963378906 -58.65399932861328,124.77400207519531 -58.65399932861328,124.77400207519531 C-58.65399932861328,124.77400207519531 -61.891998291015625,142.1300048828125 -61.891998291015625,142.1300048828125 C-61.891998291015625,142.1300048828125 -56.85499954223633,127.46600341796875 -53.137001037597656,125.88800048828125 C-49.41899871826172,124.30999755859375 -49.89799880981445,132.1060028076172 -49.89799880981445,132.1060028076172 C-49.89799880981445,132.1060028076172 -43.6609992980957,131.5500030517578 -39.4630012512207,126.44499969482422 C-39.4630012512207,126.44499969482422 -41.981998443603516,132.4770050048828 -36.944000244140625,132.57000732421875 C-31.9060001373291,132.66299438476562 -25.549999237060547,117.90599822998047 -25.549999237060547,117.90599822998047 C-25.549999237060547,117.90599822998047 -28.54800033569336,133.22000122070312 -28.54800033569336,133.22000122070312"></path></g><g opacity="1" transform="matrix(1,0,0,1,0,0)"><path stroke-linecap="round" stroke-linejoin="round" fill-opacity="0" stroke="rgb(135,103,56)" stroke-opacity="1" stroke-width="6" d=" M-8.583000183105469,119.71600341796875 C-8.583000183105469,119.71600341796875 -11.281999588012695,130.5760040283203 -11.642000198364258,132.66400146484375 C-12.001999855041504,134.7519989013672 -4.985000133514404,125.42500305175781 -2.4660000801086426,125.00700378417969 C0.05299999937415123,124.58899688720703 -4.085000038146973,130.85400390625 -2.4660000801086426,133.2209930419922 C-0.847000002861023,135.58799743652344 6.888999938964844,127.09500122070312 6.888999938964844,127.09500122070312 C6.888999938964844,127.09500122070312 7.249000072479248,133.36000061035156 7.249000072479248,133.36000061035156"></path></g><g opacity="1" transform="matrix(1,0,0,1,0,0)"><path stroke-linecap="round" stroke-linejoin="round" fill-opacity="0" stroke="rgb(135,103,56)" stroke-opacity="1" stroke-width="6" d=" M24.422000885009766,125.58999633789062 C24.422000885009766,125.58999633789062 21.542999267578125,132.08700561523438 23.941999435424805,133.9429931640625 C26.340999603271484,135.7989959716797 28.979999542236328,124.29100036621094 32.3380012512207,123.177001953125 C35.69599914550781,122.06300354003906 33.5369987487793,133.38600158691406 33.5369987487793,133.38600158691406 C33.5369987487793,133.38600158691406 36.895999908447266,128.18899536132812 40.9739990234375,128.0030059814453 C45.051998138427734,127.81700134277344 44.332000732421875,133.9429931640625 44.332000732421875,133.9429931640625 C44.332000732421875,133.9429931640625 48.650001525878906,126.14700317382812 52.487998962402344,126.51799774169922 C56.32600021362305,126.88899993896484 52.487998962402344,130.6020050048828 57.04600143432617,133.75799560546875 C61.604000091552734,136.91400146484375 63.04399871826172,128.74600219726562 68.32099914550781,128.18899536132812 C73.5979995727539,127.63200378417969 70.71900177001953,130.6020050048828 73.5979995727539,133.01499938964844 C76.47699737548828,135.42799377441406 78.39600372314453,128.0030059814453 78.39600372314453,128.0030059814453 C78.39600372314453,128.0030059814453 80.07499694824219,133.38600158691406 80.07499694824219,133.38600158691406"></path></g><g opacity="1" transform="matrix(1,0,0,1,0,0)"><path stroke-linecap="round" stroke-linejoin="round" fill-opacity="0" stroke="rgb(135,103,56)" stroke-opacity="1" stroke-width="6" d=" M97.1050033569336,120.67900085449219 C97.1050033569336,120.67900085449219 94.22699737548828,132.3730010986328 96.0260009765625,133.48699951171875 C97.82499694824219,134.6009979248047 102.50199890136719,128.75399780273438 105.38099670410156,120.12200164794922 C105.38099670410156,120.12200164794922 102.50299835205078,125.41200256347656 104.66200256347656,132.65199279785156 C106.82099914550781,139.89199829101562 115.45700073242188,124.8550033569336 115.45700073242188,124.8550033569336 C115.45700073242188,124.8550033569336 112.5780029296875,132.37399291992188 116.1760025024414,132.65199279785156 C119.77400207519531,132.92999267578125 125.53199768066406,126.80400085449219 125.53199768066406,126.80400085449219 C125.53199768066406,126.80400085449219 123.01300048828125,131.53799438476562 124.4520034790039,132.92999267578125 C125.89099884033203,134.32200622558594 136.68699645996094,123.18499755859375 136.68699645996094,123.18499755859375 C136.68699645996094,123.18499755859375 134.16700744628906,127.08300018310547 134.88699340820312,132.3730010986328 C135.60699462890625,137.66299438476562 139.20599365234375,129.58900451660156 144.96299743652344,127.91799926757812 C150.72000122070312,126.24700164794922 152.5189971923828,131.8159942626953 152.5189971923828,131.8159942626953"></path></g><g opacity="1" transform="matrix(1,0,0,1,0,0)"><path stroke-linecap="round" stroke-linejoin="round" fill-opacity="0" stroke="rgb(135,103,56)" stroke-opacity="1" stroke-width="6" d=" M-160.81399536132812,151.52200317382812 C-160.81399536132812,151.52200317382812 -165.49099731445312,164.83099365234375 -162.2530059814453,168.4600067138672 C-159.01499938964844,172.08900451660156 -153.25799560546875,159.99099731445312 -153.25799560546875,159.99099731445312 C-153.25799560546875,159.99099731445312 -154.69700622558594,167.25 -152.8979949951172,168.4600067138672 C-151.0989990234375,169.6699981689453 -145.34100341796875,160.5959930419922 -145.34100341796875,160.5959930419922 C-145.34100341796875,160.5959930419922 -146.06100463867188,165.13299560546875 -143.90199279785156,167.85499572753906 C-141.7429962158203,170.57699584960938 -139.2239990234375,163.3179931640625 -134.906005859375,162.41099548339844 C-130.58799743652344,161.50399780273438 -132.7469940185547,168.4600067138672 -132.7469940185547,168.4600067138672 C-132.7469940185547,168.4600067138672 -129.1490020751953,168.15699768066406 -124.47100067138672,164.8300018310547"></path></g><g opacity="1" transform="matrix(1,0,0,1,0,0)"><path stroke-linecap="round" stroke-linejoin="round" fill-opacity="0" stroke="rgb(135,103,56)" stroke-opacity="1" stroke-width="6" d=" M-46.82600021362305,155.70599365234375 C-46.82600021362305,155.70599365234375 -49.70399856567383,168.40899658203125 -47.904998779296875,169.61900329589844 C-46.10599899291992,170.82899475097656 -41.42900085449219,164.4770050048828 -38.54999923706055,155.1009979248047 C-38.54999923706055,155.1009979248047 -41.42900085449219,160.84800720214844 -39.27000045776367,168.71200561523438 C-37.111000061035156,176.5760040283203 -28.475000381469727,160.2429962158203 -28.475000381469727,160.2429962158203 C-28.475000381469727,160.2429962158203 -31.35300064086914,168.41000366210938 -27.7549991607666,168.71200561523438 C-24.156999588012695,169.01400756835938 -18.399999618530273,162.36000061035156 -18.399999618530273,162.36000061035156 C-18.399999618530273,162.36000061035156 -20.917999267578125,167.5019989013672 -19.479000091552734,169.01400756835938 C-18.040000915527344,170.5260009765625 -7.244999885559082,158.42799377441406 -7.244999885559082,158.42799377441406 C-7.244999885559082,158.42799377441406 -9.763999938964844,162.66200256347656 -9.043999671936035,168.40899658203125 C-8.324000358581543,174.156005859375 -4.72599983215332,165.38499450683594 1.031000018119812,163.57000732421875 C6.788000106811523,161.7550048828125 8.588000297546387,167.80499267578125 8.588000297546387,167.80499267578125"></path></g><g opacity="1" transform="matrix(1,0,0,1,0,0)"><path stroke-linecap="round" stroke-linejoin="round" fill-opacity="0" stroke="rgb(135,103,56)" stroke-opacity="1" stroke-width="6" d=" M-101.43499755859375,161.98699951171875 C-101.43499755859375,161.98699951171875 -103.23500061035156,168.03599548339844 -102.69499969482422,168.9429931640625 C-102.15499877929688,169.85000610351562 -94.41899871826172,155.48399353027344 -94.77899932861328,161.6840057373047 C-95.13899993896484,167.88400268554688 -97.2969970703125,171.36199951171875 -91,169.093994140625 C-84.7030029296875,166.8260040283203 -78.94599914550781,158.20599365234375 -78.94599914550781,158.20599365234375 C-78.94599914550781,158.20599365234375 -80.9260025024414,166.5229949951172 -80.0260009765625,169.093994140625 C-79.1259994506836,171.6649932861328 -70.48999786376953,162.44000244140625 -70.48999786376953,162.44000244140625"></path></g><g opacity="1" transform="matrix(1,0,0,1,0,0)"><path stroke-linecap="round" stroke-linejoin="round" fill-opacity="0" stroke="rgb(135,103,56)" stroke-opacity="1" stroke-width="6" d=" M31.551000595092773,155.52999877929688 C31.551000595092773,155.52999877929688 29.392000198364258,166.57000732421875 29.75200080871582,168.68699645996094 C30.11199951171875,170.8040008544922 35.86899948120117,160.21800231933594 37.12799835205078,163.09100341796875 C38.387001037597656,165.96400451660156 37.12799835205078,169.14100646972656 39.46699905395508,169.29200744628906 C41.805999755859375,169.4429931640625 45.944000244140625,164.906005859375 45.944000244140625,164.906005859375 C45.944000244140625,164.906005859375 42.70500183105469,170.04800415039062 47.382999420166016,170.04800415039062 C52.06100082397461,170.04800415039062 55.8390007019043,164.45199584960938 55.8390007019043,164.45199584960938 C55.8390007019043,164.45199584960938 57.0989990234375,169.13999938964844 57.0989990234375,169.13999938964844 C57.0989990234375,169.13999938964844 57.63800048828125,173.375 61.95600128173828,168.08200073242188 C66.27400207519531,162.78900146484375 69.33300018310547,155.0760040283203 69.33300018310547,155.0760040283203 C69.33300018310547,155.0760040283203 64.65499877929688,169.29200744628906 67.53399658203125,169.89700317382812 C70.41300201416016,170.5019989013672 78.3290023803711,162.3350067138672 78.3290023803711,162.3350067138672 C78.3290023803711,162.3350067138672 76.70899963378906,166.8719940185547 78.86799621582031,169.4429931640625 C81.0270004272461,172.01400756835938 84.98600006103516,166.11599731445312 84.98600006103516,166.11599731445312 C84.98600006103516,166.11599731445312 83.36699676513672,170.50100708007812 88.76399993896484,169.7449951171875 C94.16100311279297,168.98899841308594 95.77999877929688,158.1009979248047 95.77999877929688,158.1009979248047 C95.77999877929688,158.1009979248047 96.13999938964844,166.57000732421875 98.29900360107422,169.4429931640625"></path></g><g opacity="1" transform="matrix(1,0,0,1,0,0)"><g opacity="1" transform="matrix(1,0,0,1,0,0)"><path stroke-linecap="round" stroke-linejoin="round" fill-opacity="0" stroke="rgb(135,103,56)" stroke-opacity="1" stroke-width="6" d=" M-158.31700134277344,-173.63600158691406 C-158.31700134277344,-173.63600158691406 -159.39700317382812,-157.83700561523438 -159.2169952392578,-155.60699462890625 C-159.03700256347656,-153.3769989013672 -156.697998046875,-160.2530059814453 -154.1790008544922,-163.2270050048828 C-151.66000366210938,-166.2010040283203 -152.3800048828125,-155.42100524902344 -152.3800048828125,-155.42100524902344 C-152.3800048828125,-155.42100524902344 -148.06199645996094,-165.27200317382812 -146.80299377441406,-170.2899932861328 C-145.54400634765625,-175.30799865722656 -146.26300048828125,-155.79200744628906 -146.26300048828125,-155.79200744628906 C-146.26300048828125,-155.79200744628906 -138.88699340820312,-163.04100036621094 -138.88699340820312,-163.04100036621094 C-138.88699340820312,-163.04100036621094 -142.125,-156.16400146484375 -137.6269989013672,-155.42100524902344 C-133.12899780273438,-154.67799377441406 -130.7899932861328,-160.9969940185547 -129.3509979248047,-159.13800048828125 C-127.91200256347656,-157.2790069580078 -125.93299865722656,-151.7030029296875 -120.8949966430664,-161.5540008544922 C-115.85700225830078,-171.40499877929688 -120.17500305175781,-155.0489959716797 -120.17500305175781,-155.0489959716797 C-120.17500305175781,-155.0489959716797 -115.49800109863281,-154.49099731445312 -111.36000061035156,-158.5800018310547 C-107.22200012207031,-162.66900634765625 -107.76100158691406,-154.49099731445312 -107.76100158691406,-154.49099731445312 C-107.76100158691406,-154.49099731445312 -102.7239990234375,-154.86300659179688 -98.0459976196289,-157.83700561523438"></path></g><g opacity="1" transform="matrix(1,0,0,1,0,0)"><path stroke-linecap="round" stroke-linejoin="round" fill-opacity="0" stroke="rgb(135,103,56)" stroke-opacity="1" stroke-width="6" d=" M-87.61100006103516,-165.27200317382812 C-87.61100006103516,-165.27200317382812 -89.2300033569336,-157.46499633789062 -88.87000274658203,-154.86300659179688 C-88.51000213623047,-152.26100158691406 -85.09200286865234,-162.11199951171875 -82.39299774169922,-163.04100036621094 C-79.69400024414062,-163.97000122070312 -83.29299926757812,-157.6510009765625 -79.15499877929688,-154.30499267578125 C-75.01699829101562,-150.95899963378906 -72.49800109863281,-156.9080047607422 -72.49800109863281,-156.9080047607422 C-72.49800109863281,-156.9080047607422 -73.39800262451172,-150.21600341796875 -68.72000122070312,-154.30499267578125 C-64.04199981689453,-158.3939971923828 -63.86199951171875,-168.80299377441406 -63.86199951171875,-168.80299377441406"></path></g><g opacity="1" transform="matrix(1,0,0,1,0,0)"><path stroke-linecap="round" stroke-linejoin="round" fill-opacity="0" stroke="rgb(135,103,56)" stroke-opacity="1" stroke-width="6" d=" M-50.729000091552734,-171.0330047607422 C-50.729000091552734,-171.0330047607422 -52.88800048828125,-157.46499633789062 -52.52799987792969,-154.86300659179688 C-52.167999267578125,-152.26100158691406 -46.40999984741211,-165.27099609375 -45.1510009765625,-161.74000549316406 C-43.891998291015625,-158.20899963378906 -45.1510009765625,-154.30599975585938 -42.8120002746582,-154.1199951171875 C-40.472999572753906,-153.9340057373047 -36.334999084472656,-159.50999450683594 -36.334999084472656,-159.50999450683594 C-36.334999084472656,-159.50999450683594 -39.57400131225586,-153.19000244140625 -34.895999908447266,-153.19000244140625 C-30.218000411987305,-153.19000244140625 -26.440000534057617,-160.06700134277344 -26.440000534057617,-160.06700134277344 C-26.440000534057617,-160.06700134277344 -25.180999755859375,-154.30499267578125 -25.180999755859375,-154.30499267578125 C-25.180999755859375,-154.30499267578125 -24.641000747680664,-149.1020050048828 -20.322999954223633,-155.60699462890625 C-16.0049991607666,-162.11199951171875 -12.946999549865723,-171.59100341796875 -12.946999549865723,-171.59100341796875 C-12.946999549865723,-171.59100341796875 -17.625,-154.11900329589844 -14.746000289916992,-153.37600708007812 C-11.866999626159668,-152.63299560546875 -3.9509999752044678,-162.66900634765625 -3.9509999752044678,-162.66900634765625 C-3.9509999752044678,-162.66900634765625 -5.570000171661377,-157.093994140625 -3.4110000133514404,-153.9340057373047 C-1.2519999742507935,-150.7740020751953 2.7060000896453857,-158.0229949951172 2.7060000896453857,-158.0229949951172 C2.7060000896453857,-158.0229949951172 1.0870000123977661,-152.63299560546875 6.484000205993652,-153.56199645996094 C11.880999565124512,-154.49099731445312 13.50100040435791,-167.87399291992188 13.50100040435791,-167.87399291992188 C13.50100040435791,-167.87399291992188 13.861000061035156,-157.46499633789062 16.020000457763672,-153.9340057373047"></path></g><g opacity="1" transform="matrix(1,0,0,1,0,0)"><path stroke-linecap="round" stroke-linejoin="round" fill-opacity="0" stroke="rgb(135,103,56)" stroke-opacity="1" stroke-width="6" d=" M30.773000717163086,-163.2270050048828 C30.773000717163086,-163.2270050048828 28.79400062561035,-159.50999450683594 30.593000411987305,-154.86300659179688 C32.391998291015625,-150.21600341796875 36.709999084472656,-160.9969940185547 36.709999084472656,-160.9969940185547 C36.709999084472656,-160.9969940185547 35.45100021362305,-158.3939971923828 37.06999969482422,-154.49099731445312 C38.68899917602539,-150.58799743652344 45.70600128173828,-172.3350067138672 45.70600128173828,-172.3350067138672 C45.70600128173828,-172.3350067138672 41.56800079345703,-160.625 44.986000061035156,-155.0489959716797 C48.40399932861328,-149.47300720214844 54.70100021362305,-159.8820037841797 54.70100021362305,-159.8820037841797 C54.70100021362305,-159.8820037841797 53.441001892089844,-155.42100524902344 58.479000091552734,-153.56199645996094 C63.516998291015625,-151.7030029296875 68.91400146484375,-162.66900634765625 68.91400146484375,-162.66900634765625 C68.91400146484375,-162.66900634765625 68.91400146484375,-153.7480010986328 68.91400146484375,-153.7480010986328"></path></g><g opacity="1" transform="matrix(1,0,0,1,0,0)"><path stroke-linecap="round" stroke-linejoin="round" fill-opacity="0" stroke="rgb(135,103,56)" stroke-opacity="1" stroke-width="6" d=" M81.50800323486328,-165.45700073242188 C81.50800323486328,-165.45700073242188 80.42900085449219,-157.46499633789062 80.60900115966797,-155.0489959716797 C80.78900146484375,-152.63299560546875 86.90599822998047,-163.78500366210938 86.90599822998047,-163.78500366210938 C86.90599822998047,-163.78500366210938 86.72599792480469,-158.0229949951172 88.70500183105469,-155.23500061035156 C90.68399810791016,-152.44700622558594 96.44100189208984,-163.2270050048828 96.44100189208984,-163.2270050048828 C96.44100189208984,-163.2270050048828 95.72200012207031,-158.95199584960938 97.88099670410156,-155.0489959716797 C100.04000091552734,-151.14599609375 107.41600036621094,-171.59100341796875 107.41600036621094,-171.59100341796875 C107.41600036621094,-171.59100341796875 108.8550033569336,-154.677001953125 108.8550033569336,-154.677001953125"></path></g><g opacity="1" transform="matrix(1,0,0,1,0,0)"><path stroke-linecap="round" stroke-linejoin="round" fill-opacity="0" stroke="rgb(135,103,56)" stroke-opacity="1" stroke-width="6" d=" M124.86799621582031,-168.80299377441406 C124.86799621582031,-168.80299377441406 123.78800201416016,-161.74000549316406 124.50800323486328,-155.97799682617188 C125.22799682617188,-150.21600341796875 134.04299926757812,-166.572998046875 134.04299926757812,-166.572998046875 C134.04299926757812,-166.572998046875 133.5030059814453,-160.81100463867188 134.04299926757812,-155.97799682617188 C134.58299255371094,-151.14500427246094 139.8000030517578,-162.85499572753906 142.31900024414062,-161.74000549316406 C144.83799743652344,-160.625 143.75900268554688,-155.23500061035156 143.75900268554688,-155.23500061035156 C143.75900268554688,-155.23500061035156 149.6959991455078,-161.18299865722656 151.31500244140625,-168.98899841308594 C152.9340057373047,-176.7949981689453 150.9550018310547,-155.0489959716797 150.9550018310547,-155.0489959716797"></path></g></g></g><g style="display: block;" transform="matrix(1,0,0,1,256,256)" opacity="1"><g opacity="1" transform="matrix(1,0,0,1,0,0)"><path fill="url(#__lottie_element_23)" fill-opacity="1" d=" M-184.97900390625,154.93699645996094 C-184.97900390625,154.93699645996094 118.17900085449219,143.5679931640625 184.11599731445312,131.06300354003906 C184.11599731445312,131.06300354003906 188.66400146484375,150.00999450683594 185.2530059814453,181.8419952392578 C185.2530059814453,181.8419952392578 -153.5260009765625,184.87399291992188 -189.90499877929688,186.01100158691406 C-189.90499877929688,186.01100158691406 -186.4949951171875,159.86300659179688 -184.97900390625,154.93699645996094z"></path></g></g><g style="display: block;" transform="matrix(1,0,0,1,256,256)" opacity="1"><g opacity="1" transform="matrix(1,0,0,1,0,0)"><path fill="url(#__lottie_element_19)" fill-opacity="1" d=" M-183.8419952392578,-166.78900146484375 C-183.8419952392578,-166.78900146484375 -179.6739959716797,-106.91600036621094 -178.53700256347656,-70.53700256347656 C-178.53700256347656,-70.53700256347656 -127.37899780273438,-106.91600036621094 30.642000198364258,-116.01100158691406 C105.68699645996094,-120.33000183105469 180.7050018310547,-109.18900299072266 180.7050018310547,-109.18900299072266 C180.7050018310547,-109.18900299072266 186.76800537109375,-164.13699340820312 186.76800537109375,-164.13699340820312 C186.76800537109375,-164.13699340820312 -183.8419952392578,-166.78900146484375 -183.8419952392578,-166.78900146484375z"></path></g></g><g style="display: block;" transform="matrix(1,0,0,1,256,256)" opacity="1"><g opacity="1" transform="matrix(1,0,0,1,0,0)"><path fill="url(#__lottie_element_12)" fill-opacity="1" d=" M202.93699645996094,150.89500427246094 C202.93699645996094,150.89500427246094 210.26300048828125,150.1999969482422 212.53700256347656,183.5469970703125 C212.53700256347656,183.5469970703125 24.57900047302246,182.7259979248047 -58.284000396728516,185.75799560546875 C-58.284000396728516,185.75799560546875 -61.82099914550781,176.66299438476562 -50.20000076293945,167.06300354003906 C-50.20000076293945,167.06300354003906 175.6529998779297,155.947998046875 202.93699645996094,150.89500427246094z"></path><path stroke-linecap="round" stroke-linejoin="round" fill-opacity="0" stroke="rgb(86,61,34)" stroke-opacity="1" stroke-width="8" d=" M202.93699645996094,150.89500427246094 C202.93699645996094,150.89500427246094 210.26300048828125,150.1999969482422 212.53700256347656,183.5469970703125 C212.53700256347656,183.5469970703125 24.57900047302246,182.7259979248047 -58.284000396728516,185.75799560546875 C-58.284000396728516,185.75799560546875 -61.82099914550781,176.66299438476562 -50.20000076293945,167.06300354003906 C-50.20000076293945,167.06300354003906 175.6529998779297,155.947998046875 202.93699645996094,150.89500427246094z"></path></g><g opacity="1" transform="matrix(1,0,0,1,0,0)"><path fill="url(#__lottie_element_13)" fill-opacity="1" d=" M188.66299438476562,186.76800537109375 C188.66299438476562,186.76800537109375 199.6529998779297,186.76800537109375 199.6529998779297,186.76800537109375 C199.6529998779297,186.76800537109375 209,158.2209930419922 201.92599487304688,152.66299438476562 C194.8520050048828,147.10499572753906 190.1790008544922,172.11500549316406 188.66299438476562,186.76800537109375z"></path></g><g opacity="1" transform="matrix(1,0,0,1,0,0)"><path fill="url(#__lottie_element_14)" fill-opacity="1" d=" M-182.57899475097656,163.02099609375 C-182.57899475097656,163.02099609375 -190.13999938964844,165.82899475097656 -194.7050018310547,176.91600036621094 C-197.35800170898438,183.35800170898438 -197.73699951171875,190.81100463867188 -196.2209930419922,195.35800170898438 C-196.2209930419922,195.35800170898438 -81.02100372314453,200.91600036621094 26.094999313354492,204.95799255371094 C133.21099853515625,209 188.66299438476562,208.7469940185547 188.66299438476562,208.7469940185547 C188.66299438476562,208.7469940185547 192.4530029296875,149.6320037841797 202.93699645996094,150.89500427246094 C202.93699645996094,150.89500427246094 82.93699645996094,160.24200439453125 -40.095001220703125,163.5260009765625 C-105.02999877929688,165.25900268554688 -182.57899475097656,163.02099609375 -182.57899475097656,163.02099609375z"></path><path stroke-linecap="round" stroke-linejoin="round" fill-opacity="0" stroke="rgb(160,127,87)" stroke-opacity="1" stroke-width="8" d=" M-182.57899475097656,163.02099609375 C-182.57899475097656,163.02099609375 -190.13999938964844,165.82899475097656 -194.7050018310547,176.91600036621094 C-197.35800170898438,183.35800170898438 -197.73699951171875,190.81100463867188 -196.2209930419922,195.35800170898438 C-196.2209930419922,195.35800170898438 -81.02100372314453,200.91600036621094 26.094999313354492,204.95799255371094 C133.21099853515625,209 188.66299438476562,208.7469940185547 188.66299438476562,208.7469940185547 C188.66299438476562,208.7469940185547 192.4530029296875,149.6320037841797 202.93699645996094,150.89500427246094 C202.93699645996094,150.89500427246094 82.93699645996094,160.24200439453125 -40.095001220703125,163.5260009765625 C-105.02999877929688,165.25900268554688 -182.57899475097656,163.02099609375 -182.57899475097656,163.02099609375z"></path></g><g opacity="1" transform="matrix(1,0,0,1,0,0)"><path fill="url(#__lottie_element_15)" fill-opacity="1" d=" M-196.41099548339844,194.2209930419922 C-196.41099548339844,194.2209930419922 67.46299743652344,204.83099365234375 188.2209930419922,207.86300659179688 C188.2209930419922,207.86300659179688 185.89599609375,193.68499755859375 189.6739959716797,183.98899841308594 C13.336999893188477,192.5780029296875 -170.072998046875,182.97900390625 -195.08399963378906,180.95799255371094 C-197.35800170898438,185.3159942626953 -198.11599731445312,193.2740020751953 -196.41099548339844,194.2209930419922z"></path></g><g opacity="1" transform="matrix(1,0,0,1,0,0)"><path stroke-linecap="round" stroke-linejoin="round" fill-opacity="0" stroke="rgb(102,71,46)" stroke-opacity="1" stroke-width="8" d=" M202.93699645996094,150.89500427246094 C197.35899353027344,152.88699340820312 194.03799438476562,164.98399353027344 192.072998046875,177.6739959716797 C189.67599487304688,193.1479949951172 189.2949981689453,209.5050048828125 189.2949981689453,209.5050048828125 C189.2949981689453,209.5050048828125 133.21099853515625,209 26.094999313354492,204.95799255371094 C-81.02100372314453,200.91600036621094 -196.2209930419922,195.35800170898438 -196.2209930419922,195.35800170898438"></path></g><g opacity="0.4" transform="matrix(1,0,0,1,0,0)"><path stroke-linecap="round" stroke-linejoin="round" fill-opacity="0" stroke="rgb(255,255,255)" stroke-opacity="1" stroke-width="8" d=" M183.73699951171875,161 C183.73699951171875,161 91.27400207519531,168.1999969482422 -37.94599914550781,171.80799865722656 C-102.87799835205078,173.62100219726562 -180.42999267578125,171.30299377441406 -180.42999267578125,171.30299377441406"></path></g></g><g style="display: block;" transform="matrix(1,0,0,1,256,256)" opacity="1"><g opacity="1" transform="matrix(1,0,0,1,0,0)"><path fill="url(#__lottie_element_6)" fill-opacity="1" d=" M179.18899536132812,-178.53700256347656 C179.18899536132812,-178.53700256347656 -174.7469940185547,-192.93699645996094 -202.78900146484375,-192.1790008544922 C-202.78900146484375,-192.1790008544922 -201.65199279785156,-163.75799560546875 -196.7259979248047,-150.11599731445312 C-196.7259979248047,-150.11599731445312 35.189998626708984,-169.94700622558594 175.6529998779297,-169.94700622558594 C194.30099487304688,-169.94700622558594 183.2989959716797,-176.48199462890625 179.18899536132812,-178.53700256347656z"></path><path stroke-linecap="round" stroke-linejoin="round" fill-opacity="0" stroke="rgb(86,61,34)" stroke-opacity="1" stroke-width="8" d=" M179.18899536132812,-178.53700256347656 C179.18899536132812,-178.53700256347656 -174.7469940185547,-192.93699645996094 -202.78900146484375,-192.1790008544922 C-202.78900146484375,-192.1790008544922 -201.65199279785156,-163.75799560546875 -196.7259979248047,-150.11599731445312 C-196.7259979248047,-150.11599731445312 35.189998626708984,-169.94700622558594 175.6529998779297,-169.94700622558594 C194.30099487304688,-169.94700622558594 183.2989959716797,-176.48199462890625 179.18899536132812,-178.53700256347656z"></path></g><g opacity="1" transform="matrix(1,0,0,1,0,0)"><path fill="url(#__lottie_element_7)" fill-opacity="1" d=" M-181.94700622558594,-213.39999389648438 C-181.94700622558594,-213.39999389648438 -184.60000610351562,-154.66299438476562 -196.7259979248047,-150.11599731445312 C-196.7259979248047,-150.11599731445312 62.979000091552734,-167.927001953125 183.73699951171875,-164.89500427246094 C183.73699951171875,-164.89500427246094 201.16799926757812,-180.81100463867188 195.86300659179688,-200.51600646972656 C195.86300659179688,-200.51600646972656 56.03200149536133,-208.09500122070312 -181.94700622558594,-213.39999389648438z"></path><path stroke-linecap="round" stroke-linejoin="round" fill-opacity="0" stroke="rgb(160,127,87)" stroke-opacity="1" stroke-width="8" d=" M-181.94700622558594,-213.39999389648438 C-181.94700622558594,-213.39999389648438 -184.60000610351562,-154.66299438476562 -196.7259979248047,-150.11599731445312 C-196.7259979248047,-150.11599731445312 62.979000091552734,-167.927001953125 183.73699951171875,-164.89500427246094 C183.73699951171875,-164.89500427246094 201.16799926757812,-180.81100463867188 195.86300659179688,-200.51600646972656 C195.86300659179688,-200.51600646972656 56.03200149536133,-208.09500122070312 -181.94700622558594,-213.39999389648438z"></path></g><g opacity="1" transform="matrix(1,0,0,1,0,0)"><path fill="url(#__lottie_element_8)" fill-opacity="1" d=" M-197.48399353027344,-152.38900756835938 C-197.48399353027344,-152.38900756835938 59.027000427246094,-169.52000427246094 179.78500366210938,-166.48800659179688 C179.78500366210938,-166.48800659179688 186.77999877929688,-172.88299560546875 190.55799865722656,-182.57899475097656 C31.238000869750977,-190.36199951171875 -83.80000305175781,-181.94700622558594 -186.11599731445312,-176.64199829101562 C-186.6060028076172,-163.55599975585938 -190.34800720214844,-153.4080047607422 -197.48399353027344,-152.38900756835938z"></path></g><g opacity="0.4" transform="matrix(1,0,0,1,0,0)"><path stroke-linecap="round" stroke-linejoin="round" fill-opacity="0" stroke="rgb(255,255,255)" stroke-opacity="1" stroke-width="8" d=" M189.04200744628906,-192.93699645996094 C189.04200744628906,-192.93699645996094 64.09500122070312,-199.19000244140625 -173.88400268554688,-204.4949951171875"></path></g><g opacity="1" transform="matrix(1,0,0,1,0,0)"><path stroke-linecap="round" stroke-linejoin="round" fill-opacity="0" stroke="rgb(102,71,46)" stroke-opacity="1" stroke-width="8" d=" M-181.94700622558594,-213.39999389648438 C-181.94700622558594,-213.39999389648438 -185.16799926757812,-154.28399658203125 -196.7259979248047,-150.11599731445312 C-196.7259979248047,-150.11599731445312 62.979000091552734,-167.927001953125 183.73699951171875,-164.89500427246094"></path></g></g></g></svg>